<mxfile host="app.diagrams.net" agent="Mozilla/5.0 (Windows NT 10.0; Win64; x64) AppleWebKit/537.36 (KHTML, like Gecko) Chrome/130.0.0.0 Safari/537.36" version="24.8.3">
  <diagram name="Pagina-1" id="qynmgUaijVPvpx2gWuF3">
    <mxGraphModel dx="1219" dy="638" grid="1" gridSize="10" guides="1" tooltips="1" connect="1" arrows="1" fold="1" page="1" pageScale="1" pageWidth="827" pageHeight="1169" math="1" shadow="0">
      <root>
        <mxCell id="0" />
        <mxCell id="1" parent="0" />
        <mxCell id="v_qABUmsBvEk_b86LKDn-2" value="\(G(s)\)" style="rounded=0;whiteSpace=wrap;html=1;fontSize=21;fillColor=none;" vertex="1" parent="1">
          <mxGeometry x="320" y="220" width="120" height="60" as="geometry" />
        </mxCell>
        <mxCell id="v_qABUmsBvEk_b86LKDn-3" value="" style="endArrow=classic;html=1;rounded=0;" edge="1" parent="1">
          <mxGeometry width="50" height="50" relative="1" as="geometry">
            <mxPoint x="240" y="249.66" as="sourcePoint" />
            <mxPoint x="320" y="249.66" as="targetPoint" />
            <Array as="points">
              <mxPoint x="270" y="249.66" />
            </Array>
          </mxGeometry>
        </mxCell>
        <mxCell id="v_qABUmsBvEk_b86LKDn-4" value="" style="endArrow=classic;html=1;rounded=0;" edge="1" parent="1">
          <mxGeometry width="50" height="50" relative="1" as="geometry">
            <mxPoint x="440" y="249.65999999999997" as="sourcePoint" />
            <mxPoint x="520" y="249.65999999999997" as="targetPoint" />
            <Array as="points">
              <mxPoint x="470" y="249.65999999999997" />
            </Array>
          </mxGeometry>
        </mxCell>
        <mxCell id="v_qABUmsBvEk_b86LKDn-5" value="\(u(t)\)" style="text;html=1;align=center;verticalAlign=middle;whiteSpace=wrap;rounded=0;fontSize=18;" vertex="1" parent="1">
          <mxGeometry x="250" y="210" width="60" height="30" as="geometry" />
        </mxCell>
        <mxCell id="v_qABUmsBvEk_b86LKDn-6" value="\(y(t)\)" style="text;html=1;align=center;verticalAlign=middle;whiteSpace=wrap;rounded=0;fontSize=18;" vertex="1" parent="1">
          <mxGeometry x="450" y="210" width="60" height="30" as="geometry" />
        </mxCell>
        <mxCell id="v_qABUmsBvEk_b86LKDn-7" value="\(Y(s)=G(s)\cdot U(s)\)" style="text;html=1;align=center;verticalAlign=middle;whiteSpace=wrap;rounded=0;fontSize=18;" vertex="1" parent="1">
          <mxGeometry x="640" y="235" width="60" height="30" as="geometry" />
        </mxCell>
        <mxCell id="v_qABUmsBvEk_b86LKDn-8" value="Blocco" style="text;html=1;align=center;verticalAlign=middle;whiteSpace=wrap;rounded=0;fontSize=20;" vertex="1" parent="1">
          <mxGeometry x="100" y="235" width="60" height="30" as="geometry" />
        </mxCell>
        <mxCell id="v_qABUmsBvEk_b86LKDn-16" value="Nodo&amp;nbsp;&lt;div&gt;sommatore&lt;/div&gt;" style="text;html=1;align=center;verticalAlign=middle;whiteSpace=wrap;rounded=0;fontSize=20;" vertex="1" parent="1">
          <mxGeometry x="100" y="372.5" width="60" height="30" as="geometry" />
        </mxCell>
        <mxCell id="v_qABUmsBvEk_b86LKDn-17" value="" style="endArrow=classic;html=1;rounded=0;" edge="1" parent="1">
          <mxGeometry width="50" height="50" relative="1" as="geometry">
            <mxPoint x="290" y="399.65999999999997" as="sourcePoint" />
            <mxPoint x="370" y="399.65999999999997" as="targetPoint" />
            <Array as="points">
              <mxPoint x="320" y="399.65999999999997" />
            </Array>
          </mxGeometry>
        </mxCell>
        <mxCell id="v_qABUmsBvEk_b86LKDn-18" value="\(u(t)\)" style="text;html=1;align=center;verticalAlign=middle;whiteSpace=wrap;rounded=0;fontSize=18;" vertex="1" parent="1">
          <mxGeometry x="270" y="360" width="60" height="30" as="geometry" />
        </mxCell>
        <mxCell id="v_qABUmsBvEk_b86LKDn-19" value="" style="ellipse;whiteSpace=wrap;html=1;aspect=fixed;fillColor=none;" vertex="1" parent="1">
          <mxGeometry x="370" y="385" width="30" height="30" as="geometry" />
        </mxCell>
        <mxCell id="v_qABUmsBvEk_b86LKDn-20" value="" style="endArrow=classic;html=1;rounded=0;" edge="1" parent="1">
          <mxGeometry width="50" height="50" relative="1" as="geometry">
            <mxPoint x="384.76" y="472.5" as="sourcePoint" />
            <mxPoint x="384.76" y="415" as="targetPoint" />
          </mxGeometry>
        </mxCell>
        <mxCell id="v_qABUmsBvEk_b86LKDn-21" value="\(v(t)\)" style="text;html=1;align=center;verticalAlign=middle;whiteSpace=wrap;rounded=0;fontSize=18;" vertex="1" parent="1">
          <mxGeometry x="380" y="462.5" width="60" height="30" as="geometry" />
        </mxCell>
        <mxCell id="v_qABUmsBvEk_b86LKDn-22" value="\(+\)" style="text;html=1;align=center;verticalAlign=middle;whiteSpace=wrap;rounded=0;fontSize=18;" vertex="1" parent="1">
          <mxGeometry x="340" y="415" width="60" height="30" as="geometry" />
        </mxCell>
        <mxCell id="v_qABUmsBvEk_b86LKDn-23" value="\(+\)" style="text;html=1;align=center;verticalAlign=middle;whiteSpace=wrap;rounded=0;fontSize=18;" vertex="1" parent="1">
          <mxGeometry x="330" y="360" width="60" height="30" as="geometry" />
        </mxCell>
        <mxCell id="v_qABUmsBvEk_b86LKDn-24" value="" style="endArrow=classic;html=1;rounded=0;" edge="1" parent="1">
          <mxGeometry width="50" height="50" relative="1" as="geometry">
            <mxPoint x="400" y="399.76" as="sourcePoint" />
            <mxPoint x="480" y="399.76" as="targetPoint" />
            <Array as="points">
              <mxPoint x="430" y="399.76" />
            </Array>
          </mxGeometry>
        </mxCell>
        <mxCell id="v_qABUmsBvEk_b86LKDn-25" value="\(y(t)\)" style="text;html=1;align=center;verticalAlign=middle;whiteSpace=wrap;rounded=0;fontSize=18;" vertex="1" parent="1">
          <mxGeometry x="430" y="360" width="60" height="30" as="geometry" />
        </mxCell>
        <mxCell id="v_qABUmsBvEk_b86LKDn-27" value="\(Y(s)=V(s)+ U(s)\)" style="text;html=1;align=center;verticalAlign=middle;whiteSpace=wrap;rounded=0;fontSize=18;" vertex="1" parent="1">
          <mxGeometry x="640" y="385" width="60" height="30" as="geometry" />
        </mxCell>
        <mxCell id="v_qABUmsBvEk_b86LKDn-28" value="Diramazione" style="text;html=1;align=center;verticalAlign=middle;whiteSpace=wrap;rounded=0;fontSize=20;" vertex="1" parent="1">
          <mxGeometry x="100" y="550" width="60" height="30" as="geometry" />
        </mxCell>
        <mxCell id="v_qABUmsBvEk_b86LKDn-29" value="" style="endArrow=classic;html=1;rounded=0;" edge="1" parent="1">
          <mxGeometry width="50" height="50" relative="1" as="geometry">
            <mxPoint x="270" y="565.5" as="sourcePoint" />
            <mxPoint x="480" y="565.5" as="targetPoint" />
          </mxGeometry>
        </mxCell>
        <mxCell id="v_qABUmsBvEk_b86LKDn-30" value="\(u(t)\)" style="text;html=1;align=center;verticalAlign=middle;whiteSpace=wrap;rounded=0;fontSize=18;" vertex="1" parent="1">
          <mxGeometry x="240" y="520" width="60" height="30" as="geometry" />
        </mxCell>
        <mxCell id="v_qABUmsBvEk_b86LKDn-31" value="\(u(t)\)" style="text;html=1;align=center;verticalAlign=middle;whiteSpace=wrap;rounded=0;fontSize=18;" vertex="1" parent="1">
          <mxGeometry x="450" y="520" width="60" height="30" as="geometry" />
        </mxCell>
        <mxCell id="v_qABUmsBvEk_b86LKDn-32" value="" style="endArrow=classic;html=1;rounded=0;" edge="1" parent="1">
          <mxGeometry width="50" height="50" relative="1" as="geometry">
            <mxPoint x="370" y="565.5" as="sourcePoint" />
            <mxPoint x="480" y="645.5" as="targetPoint" />
            <Array as="points">
              <mxPoint x="370" y="645.5" />
            </Array>
          </mxGeometry>
        </mxCell>
        <mxCell id="v_qABUmsBvEk_b86LKDn-33" value="\(v(t)\)" style="text;html=1;align=center;verticalAlign=middle;whiteSpace=wrap;rounded=0;fontSize=18;" vertex="1" parent="1">
          <mxGeometry x="450" y="605.5" width="60" height="30" as="geometry" />
        </mxCell>
        <mxCell id="v_qABUmsBvEk_b86LKDn-34" value="\(V(s)= U(s)\)" style="text;html=1;align=center;verticalAlign=middle;whiteSpace=wrap;rounded=0;fontSize=18;" vertex="1" parent="1">
          <mxGeometry x="640" y="550.5" width="60" height="30" as="geometry" />
        </mxCell>
      </root>
    </mxGraphModel>
  </diagram>
</mxfile>
